M48
METRIC,LZ,000.000
;FILE_FORMAT=3:3
;TYPE=PLATED
;Layer: PTH_Through
;EasyEDA v6.5.22, 2022-12-21 06:26:03
;44fb20df35f846389fc18a84798fcb8b,a0dd7df4febf45e98c33e1d5b3abf522,10
;Gerber Generator version 0.2
;Holesize 1 = 0.915 mm
T01C0.915
;Holesize 2 = 1.199 mm
T02C1.199
%
G05
G90
T01
X007679Y004810
X007679Y007350
X007679Y009890
X007679Y012430
X007679Y014970
X007679Y017510
X007679Y020050
X007679Y022590
X033079Y004810
X030539Y004810
X027999Y004810
X025459Y004810
X022919Y004810
X020379Y004810
X017839Y004810
X015299Y004810
X015299Y035290
X005299Y035290
X015139Y032750
X005139Y032750
X015139Y030210
X005139Y030210
X015139Y027670
X005139Y027670
X020379Y035290
X020379Y032750
X020379Y030210
X027999Y035290
X027999Y032750
X027999Y030210
X035619Y035290
X035619Y032750
X035619Y030210
X043239Y035290
X043239Y032750
X043239Y030210
T02
X022919Y012430
X025459Y012430
X027999Y012430
X030539Y012430
X033079Y012430
X035619Y012430
X035619Y022590
X033079Y022590
X030539Y022590
X027999Y022590
X025459Y022590
X022919Y022590
M30
