G04 Layer: TopSilkscreenLayer*
G04 EasyEDA v6.5.22, 2022-12-21 06:26:03*
G04 44fb20df35f846389fc18a84798fcb8b,a0dd7df4febf45e98c33e1d5b3abf522,10*
G04 Gerber Generator version 0.2*
G04 Scale: 100 percent, Rotated: No, Reflected: No *
G04 Dimensions in millimeters *
G04 leading zeros omitted , absolute positions ,4 integer and 5 decimal *
%FSLAX45Y45*%
%MOMM*%

%ADD10C,0.1524*%
%ADD11C,0.2032*%
%ADD12C,0.2540*%

%LPD*%
D10*
X689957Y86781D02*
G01*
X695291Y76367D01*
X705705Y65953D01*
X715865Y60873D01*
X736693Y60873D01*
X747107Y65953D01*
X757521Y76367D01*
X762855Y86781D01*
X767935Y102529D01*
X767935Y128437D01*
X762855Y143931D01*
X757521Y154345D01*
X747107Y164759D01*
X736693Y169839D01*
X715865Y169839D01*
X705705Y164759D01*
X695291Y154345D01*
X689957Y143931D01*
X624425Y60873D02*
G01*
X634839Y65953D01*
X645253Y76367D01*
X650587Y86781D01*
X655667Y102529D01*
X655667Y128437D01*
X650587Y143931D01*
X645253Y154345D01*
X634839Y164759D01*
X624425Y169839D01*
X603851Y169839D01*
X593437Y164759D01*
X583023Y154345D01*
X577689Y143931D01*
X572609Y128437D01*
X572609Y102529D01*
X577689Y86781D01*
X583023Y76367D01*
X593437Y65953D01*
X603851Y60873D01*
X624425Y60873D01*
X538319Y60873D02*
G01*
X538319Y169839D01*
X538319Y60873D02*
G01*
X465675Y169839D01*
X465675Y60873D02*
G01*
X465675Y169839D01*
X431385Y81701D02*
G01*
X420971Y76367D01*
X405223Y60873D01*
X405223Y169839D01*
X3702141Y403011D02*
G01*
X3712555Y408345D01*
X3722969Y418759D01*
X3728049Y428919D01*
X3728049Y449747D01*
X3722969Y460161D01*
X3712555Y470575D01*
X3702141Y475909D01*
X3686393Y480989D01*
X3660485Y480989D01*
X3644991Y475909D01*
X3634577Y470575D01*
X3624163Y460161D01*
X3619083Y449747D01*
X3619083Y428919D01*
X3624163Y418759D01*
X3634577Y408345D01*
X3644991Y403011D01*
X3728049Y337479D02*
G01*
X3722969Y347893D01*
X3712555Y358307D01*
X3702141Y363641D01*
X3686393Y368721D01*
X3660485Y368721D01*
X3644991Y363641D01*
X3634577Y358307D01*
X3624163Y347893D01*
X3619083Y337479D01*
X3619083Y316905D01*
X3624163Y306491D01*
X3634577Y296077D01*
X3644991Y290743D01*
X3660485Y285663D01*
X3686393Y285663D01*
X3702141Y290743D01*
X3712555Y296077D01*
X3722969Y306491D01*
X3728049Y316905D01*
X3728049Y337479D01*
X3728049Y251373D02*
G01*
X3619083Y251373D01*
X3728049Y251373D02*
G01*
X3619083Y178729D01*
X3728049Y178729D02*
G01*
X3619083Y178729D01*
X3702141Y139105D02*
G01*
X3707221Y139105D01*
X3717635Y134025D01*
X3722969Y128691D01*
X3728049Y118277D01*
X3728049Y97449D01*
X3722969Y87289D01*
X3717635Y81955D01*
X3707221Y76875D01*
X3696807Y76875D01*
X3686393Y81955D01*
X3670899Y92369D01*
X3619083Y144439D01*
X3619083Y71541D01*
X2926933Y2679103D02*
G01*
X2926933Y2570137D01*
X2926933Y2679103D02*
G01*
X2963255Y2679103D01*
X2979003Y2674023D01*
X2989163Y2663609D01*
X2994497Y2653195D01*
X2999577Y2637447D01*
X2999577Y2611539D01*
X2994497Y2596045D01*
X2989163Y2585631D01*
X2979003Y2575217D01*
X2963255Y2570137D01*
X2926933Y2570137D01*
X3033867Y2679103D02*
G01*
X3033867Y2570137D01*
X3141055Y2663609D02*
G01*
X3130641Y2674023D01*
X3114893Y2679103D01*
X3094319Y2679103D01*
X3078571Y2674023D01*
X3068157Y2663609D01*
X3068157Y2653195D01*
X3073491Y2642781D01*
X3078571Y2637447D01*
X3088985Y2632367D01*
X3120227Y2621953D01*
X3130641Y2616873D01*
X3135721Y2611539D01*
X3141055Y2601125D01*
X3141055Y2585631D01*
X3130641Y2575217D01*
X3114893Y2570137D01*
X3094319Y2570137D01*
X3078571Y2575217D01*
X3068157Y2585631D01*
X3175345Y2679103D02*
G01*
X3175345Y2570137D01*
X3175345Y2679103D02*
G01*
X3222081Y2679103D01*
X3237575Y2674023D01*
X3242909Y2668689D01*
X3247989Y2658275D01*
X3247989Y2642781D01*
X3242909Y2632367D01*
X3237575Y2627287D01*
X3222081Y2621953D01*
X3175345Y2621953D01*
X3282279Y2658275D02*
G01*
X3292693Y2663609D01*
X3308187Y2679103D01*
X3308187Y2570137D01*
D11*
X2513675Y1816265D02*
G01*
X2615275Y1816265D01*
X2559903Y1742351D01*
X2587589Y1742351D01*
X2605877Y1733207D01*
X2615275Y1724063D01*
X2624419Y1696377D01*
X2624419Y1677835D01*
X2615275Y1650149D01*
X2596733Y1631607D01*
X2569047Y1622463D01*
X2541361Y1622463D01*
X2513675Y1631607D01*
X2504277Y1640751D01*
X2495133Y1659293D01*
X2777835Y1816265D02*
G01*
X2685379Y1686979D01*
X2824063Y1686979D01*
X2777835Y1816265D02*
G01*
X2777835Y1622463D01*
X2995767Y1788579D02*
G01*
X2986623Y1807121D01*
X2958683Y1816265D01*
X2940395Y1816265D01*
X2912709Y1807121D01*
X2894167Y1779435D01*
X2885023Y1733207D01*
X2885023Y1686979D01*
X2894167Y1650149D01*
X2912709Y1631607D01*
X2940395Y1622463D01*
X2949539Y1622463D01*
X2977225Y1631607D01*
X2995767Y1650149D01*
X3004911Y1677835D01*
X3004911Y1686979D01*
X2995767Y1714665D01*
X2977225Y1733207D01*
X2949539Y1742351D01*
X2940395Y1742351D01*
X2912709Y1733207D01*
X2894167Y1714665D01*
X2885023Y1686979D01*
X3065871Y1779435D02*
G01*
X3084413Y1788579D01*
X3112099Y1816265D01*
X3112099Y1622463D01*
X3173059Y1816265D02*
G01*
X3173059Y1622463D01*
X3173059Y1816265D02*
G01*
X3256117Y1816265D01*
X3283803Y1807121D01*
X3293201Y1797977D01*
X3302345Y1779435D01*
X3302345Y1760893D01*
X3293201Y1742351D01*
X3283803Y1733207D01*
X3256117Y1724063D01*
X3173059Y1724063D02*
G01*
X3256117Y1724063D01*
X3283803Y1714665D01*
X3293201Y1705521D01*
X3302345Y1686979D01*
X3302345Y1659293D01*
X3293201Y1640751D01*
X3283803Y1631607D01*
X3256117Y1622463D01*
X3173059Y1622463D01*
X3492591Y1788579D02*
G01*
X3474303Y1807121D01*
X3446363Y1816265D01*
X3409533Y1816265D01*
X3381847Y1807121D01*
X3363305Y1788579D01*
X3363305Y1770037D01*
X3372703Y1751749D01*
X3381847Y1742351D01*
X3400389Y1733207D01*
X3455761Y1714665D01*
X3474303Y1705521D01*
X3483447Y1696377D01*
X3492591Y1677835D01*
X3492591Y1650149D01*
X3474303Y1631607D01*
X3446363Y1622463D01*
X3409533Y1622463D01*
X3381847Y1631607D01*
X3363305Y1650149D01*
D10*
X1746849Y3554384D02*
G01*
X1637883Y3554384D01*
X1746849Y3554384D02*
G01*
X1746849Y3507648D01*
X1741769Y3492154D01*
X1736435Y3486820D01*
X1726021Y3481740D01*
X1715607Y3481740D01*
X1705193Y3486820D01*
X1700113Y3492154D01*
X1695033Y3507648D01*
X1695033Y3554384D01*
X1695033Y3518062D02*
G01*
X1637883Y3481740D01*
X1726021Y3447450D02*
G01*
X1731355Y3437036D01*
X1746849Y3421288D01*
X1637883Y3421288D01*
D11*
X3094949Y2932087D02*
G01*
X2900893Y2932087D01*
X3094949Y2932087D02*
G01*
X3094949Y2849029D01*
X3085551Y2821343D01*
X3076407Y2811945D01*
X3057865Y2802801D01*
X3039577Y2802801D01*
X3021035Y2811945D01*
X3011637Y2821343D01*
X3002493Y2849029D01*
X3002493Y2932087D01*
X3002493Y2867317D02*
G01*
X2900893Y2802801D01*
D10*
X1730849Y3300384D02*
G01*
X1621883Y3300384D01*
X1730849Y3300384D02*
G01*
X1730849Y3253648D01*
X1725769Y3238154D01*
X1720435Y3232820D01*
X1710021Y3227740D01*
X1699607Y3227740D01*
X1689193Y3232820D01*
X1684113Y3238154D01*
X1679033Y3253648D01*
X1679033Y3300384D01*
X1679033Y3264062D02*
G01*
X1621883Y3227740D01*
X1704941Y3188116D02*
G01*
X1710021Y3188116D01*
X1720435Y3183036D01*
X1725769Y3177702D01*
X1730849Y3167288D01*
X1730849Y3146714D01*
X1725769Y3136300D01*
X1720435Y3130966D01*
X1710021Y3125886D01*
X1699607Y3125886D01*
X1689193Y3130966D01*
X1673699Y3141380D01*
X1621883Y3193450D01*
X1621883Y3120552D01*
D11*
X1084038Y3338484D02*
G01*
X889982Y3338484D01*
X1084038Y3338484D02*
G01*
X1084038Y3255426D01*
X1074640Y3227740D01*
X1065496Y3218342D01*
X1046954Y3209198D01*
X1028666Y3209198D01*
X1010124Y3218342D01*
X1000726Y3227740D01*
X991582Y3255426D01*
X991582Y3338484D01*
X991582Y3273714D02*
G01*
X889982Y3209198D01*
D10*
X1730849Y3046384D02*
G01*
X1621883Y3046384D01*
X1730849Y3046384D02*
G01*
X1730849Y2999648D01*
X1725769Y2984154D01*
X1720435Y2978820D01*
X1710021Y2973740D01*
X1699607Y2973740D01*
X1689193Y2978820D01*
X1684113Y2984154D01*
X1679033Y2999648D01*
X1679033Y3046384D01*
X1679033Y3010062D02*
G01*
X1621883Y2973740D01*
X1730849Y2929036D02*
G01*
X1730849Y2871886D01*
X1689193Y2902874D01*
X1689193Y2887380D01*
X1684113Y2876966D01*
X1679033Y2871886D01*
X1663285Y2866552D01*
X1652871Y2866552D01*
X1637377Y2871886D01*
X1626963Y2882300D01*
X1621883Y2897794D01*
X1621883Y2913288D01*
X1626963Y2929036D01*
X1632043Y2934116D01*
X1642457Y2939450D01*
D11*
X1084038Y3084484D02*
G01*
X889982Y3084484D01*
X1084038Y3084484D02*
G01*
X1084038Y3001426D01*
X1074640Y2973740D01*
X1065496Y2964342D01*
X1046954Y2955198D01*
X1028666Y2955198D01*
X1010124Y2964342D01*
X1000726Y2973740D01*
X991582Y3001426D01*
X991582Y3084484D01*
X991582Y3019714D02*
G01*
X889982Y2955198D01*
D10*
X1730849Y2792384D02*
G01*
X1621883Y2792384D01*
X1730849Y2792384D02*
G01*
X1730849Y2745648D01*
X1725769Y2730154D01*
X1720435Y2724820D01*
X1710021Y2719740D01*
X1699607Y2719740D01*
X1689193Y2724820D01*
X1684113Y2730154D01*
X1679033Y2745648D01*
X1679033Y2792384D01*
X1679033Y2756062D02*
G01*
X1621883Y2719740D01*
X1730849Y2633380D02*
G01*
X1658205Y2685450D01*
X1658205Y2607472D01*
X1730849Y2633380D02*
G01*
X1621883Y2633380D01*
D11*
X1084038Y2830484D02*
G01*
X889982Y2830484D01*
X1084038Y2830484D02*
G01*
X1084038Y2747426D01*
X1074640Y2719740D01*
X1065496Y2710342D01*
X1046954Y2701198D01*
X1028666Y2701198D01*
X1010124Y2710342D01*
X1000726Y2719740D01*
X991582Y2747426D01*
X991582Y2830484D01*
X991582Y2765714D02*
G01*
X889982Y2701198D01*
D10*
X2585049Y3238662D02*
G01*
X2476083Y3238662D01*
X2585049Y3274984D02*
G01*
X2585049Y3202340D01*
X2564221Y3168050D02*
G01*
X2569555Y3157636D01*
X2585049Y3141888D01*
X2476083Y3141888D01*
D11*
X2413091Y3528984D02*
G01*
X2298537Y3528984D01*
X2413091Y3528984D02*
G01*
X2413091Y3479962D01*
X2407503Y3463452D01*
X2402169Y3458118D01*
X2391247Y3452530D01*
X2380325Y3452530D01*
X2369403Y3458118D01*
X2363815Y3463452D01*
X2358481Y3479962D01*
X2358481Y3528984D02*
G01*
X2358481Y3479962D01*
X2353147Y3463452D01*
X2347559Y3458118D01*
X2336637Y3452530D01*
X2320381Y3452530D01*
X2309459Y3458118D01*
X2303871Y3463452D01*
X2298537Y3479962D01*
X2298537Y3528984D01*
X2385659Y3334928D02*
G01*
X2396581Y3340262D01*
X2407503Y3351184D01*
X2413091Y3362106D01*
X2413091Y3383950D01*
X2407503Y3394872D01*
X2396581Y3405794D01*
X2385659Y3411128D01*
X2369403Y3416716D01*
X2342225Y3416716D01*
X2325715Y3411128D01*
X2314793Y3405794D01*
X2303871Y3394872D01*
X2298537Y3383950D01*
X2298537Y3362106D01*
X2303871Y3351184D01*
X2314793Y3340262D01*
X2325715Y3334928D01*
X2413091Y3233328D02*
G01*
X2413091Y3287938D01*
X2363815Y3293272D01*
X2369403Y3287938D01*
X2374737Y3271428D01*
X2374737Y3255172D01*
X2369403Y3238916D01*
X2358481Y3227994D01*
X2342225Y3222406D01*
X2331303Y3222406D01*
X2314793Y3227994D01*
X2303871Y3238916D01*
X2298537Y3255172D01*
X2298537Y3271428D01*
X2303871Y3287938D01*
X2309459Y3293272D01*
X2320381Y3298860D01*
X2413091Y3131982D02*
G01*
X2336637Y3186338D01*
X2336637Y3104550D01*
X2413091Y3131982D02*
G01*
X2298537Y3131982D01*
X2413091Y2992282D02*
G01*
X2298537Y3046892D01*
X2413091Y3068736D02*
G01*
X2413091Y2992282D01*
D10*
X3347046Y3238662D02*
G01*
X3238080Y3238662D01*
X3347046Y3274984D02*
G01*
X3347046Y3202340D01*
X3321138Y3162716D02*
G01*
X3326218Y3162716D01*
X3336632Y3157636D01*
X3341966Y3152302D01*
X3347046Y3141888D01*
X3347046Y3121314D01*
X3341966Y3110900D01*
X3336632Y3105566D01*
X3326218Y3100486D01*
X3315804Y3100486D01*
X3305390Y3105566D01*
X3289896Y3115980D01*
X3238080Y3168050D01*
X3238080Y3095152D01*
D11*
X3175088Y3528984D02*
G01*
X3060534Y3528984D01*
X3175088Y3528984D02*
G01*
X3175088Y3479962D01*
X3169500Y3463452D01*
X3164166Y3458118D01*
X3153244Y3452530D01*
X3142322Y3452530D01*
X3131400Y3458118D01*
X3125812Y3463452D01*
X3120478Y3479962D01*
X3120478Y3528984D02*
G01*
X3120478Y3479962D01*
X3115144Y3463452D01*
X3109556Y3458118D01*
X3098634Y3452530D01*
X3082378Y3452530D01*
X3071456Y3458118D01*
X3065868Y3463452D01*
X3060534Y3479962D01*
X3060534Y3528984D01*
X3147656Y3334928D02*
G01*
X3158578Y3340262D01*
X3169500Y3351184D01*
X3175088Y3362106D01*
X3175088Y3383950D01*
X3169500Y3394872D01*
X3158578Y3405794D01*
X3147656Y3411128D01*
X3131400Y3416716D01*
X3104222Y3416716D01*
X3087712Y3411128D01*
X3076790Y3405794D01*
X3065868Y3394872D01*
X3060534Y3383950D01*
X3060534Y3362106D01*
X3065868Y3351184D01*
X3076790Y3340262D01*
X3087712Y3334928D01*
X3175088Y3233328D02*
G01*
X3175088Y3287938D01*
X3125812Y3293272D01*
X3131400Y3287938D01*
X3136734Y3271428D01*
X3136734Y3255172D01*
X3131400Y3238916D01*
X3120478Y3227994D01*
X3104222Y3222406D01*
X3093300Y3222406D01*
X3076790Y3227994D01*
X3065868Y3238916D01*
X3060534Y3255172D01*
X3060534Y3271428D01*
X3065868Y3287938D01*
X3071456Y3293272D01*
X3082378Y3298860D01*
X3175088Y3131982D02*
G01*
X3098634Y3186338D01*
X3098634Y3104550D01*
X3175088Y3131982D02*
G01*
X3060534Y3131982D01*
X3175088Y2992282D02*
G01*
X3060534Y3046892D01*
X3175088Y3068736D02*
G01*
X3175088Y2992282D01*
D10*
X4109046Y3238662D02*
G01*
X4000080Y3238662D01*
X4109046Y3274984D02*
G01*
X4109046Y3202340D01*
X4109046Y3157636D02*
G01*
X4109046Y3100486D01*
X4067390Y3131474D01*
X4067390Y3115980D01*
X4062310Y3105566D01*
X4057230Y3100486D01*
X4041482Y3095152D01*
X4031068Y3095152D01*
X4015574Y3100486D01*
X4005160Y3110900D01*
X4000080Y3126394D01*
X4000080Y3141888D01*
X4005160Y3157636D01*
X4010240Y3162716D01*
X4020654Y3168050D01*
D11*
X3937088Y3528984D02*
G01*
X3822534Y3528984D01*
X3937088Y3528984D02*
G01*
X3937088Y3479962D01*
X3931500Y3463452D01*
X3926166Y3458118D01*
X3915244Y3452530D01*
X3904322Y3452530D01*
X3893400Y3458118D01*
X3887812Y3463452D01*
X3882478Y3479962D01*
X3882478Y3528984D02*
G01*
X3882478Y3479962D01*
X3877144Y3463452D01*
X3871556Y3458118D01*
X3860634Y3452530D01*
X3844378Y3452530D01*
X3833456Y3458118D01*
X3827868Y3463452D01*
X3822534Y3479962D01*
X3822534Y3528984D01*
X3909656Y3334928D02*
G01*
X3920578Y3340262D01*
X3931500Y3351184D01*
X3937088Y3362106D01*
X3937088Y3383950D01*
X3931500Y3394872D01*
X3920578Y3405794D01*
X3909656Y3411128D01*
X3893400Y3416716D01*
X3866222Y3416716D01*
X3849712Y3411128D01*
X3838790Y3405794D01*
X3827868Y3394872D01*
X3822534Y3383950D01*
X3822534Y3362106D01*
X3827868Y3351184D01*
X3838790Y3340262D01*
X3849712Y3334928D01*
X3937088Y3233328D02*
G01*
X3937088Y3287938D01*
X3887812Y3293272D01*
X3893400Y3287938D01*
X3898734Y3271428D01*
X3898734Y3255172D01*
X3893400Y3238916D01*
X3882478Y3227994D01*
X3866222Y3222406D01*
X3855300Y3222406D01*
X3838790Y3227994D01*
X3827868Y3238916D01*
X3822534Y3255172D01*
X3822534Y3271428D01*
X3827868Y3287938D01*
X3833456Y3293272D01*
X3844378Y3298860D01*
X3937088Y3131982D02*
G01*
X3860634Y3186338D01*
X3860634Y3104550D01*
X3937088Y3131982D02*
G01*
X3822534Y3131982D01*
X3937088Y2992282D02*
G01*
X3822534Y3046892D01*
X3937088Y3068736D02*
G01*
X3937088Y2992282D01*
D10*
X4871044Y3238662D02*
G01*
X4762078Y3238662D01*
X4871044Y3274984D02*
G01*
X4871044Y3202340D01*
X4871044Y3115980D02*
G01*
X4798400Y3168050D01*
X4798400Y3090072D01*
X4871044Y3115980D02*
G01*
X4762078Y3115980D01*
D11*
X4699086Y3528984D02*
G01*
X4584532Y3528984D01*
X4699086Y3528984D02*
G01*
X4699086Y3479962D01*
X4693498Y3463452D01*
X4688164Y3458118D01*
X4677242Y3452530D01*
X4666320Y3452530D01*
X4655398Y3458118D01*
X4649810Y3463452D01*
X4644476Y3479962D01*
X4644476Y3528984D02*
G01*
X4644476Y3479962D01*
X4639142Y3463452D01*
X4633554Y3458118D01*
X4622632Y3452530D01*
X4606376Y3452530D01*
X4595454Y3458118D01*
X4589866Y3463452D01*
X4584532Y3479962D01*
X4584532Y3528984D01*
X4671654Y3334928D02*
G01*
X4682576Y3340262D01*
X4693498Y3351184D01*
X4699086Y3362106D01*
X4699086Y3383950D01*
X4693498Y3394872D01*
X4682576Y3405794D01*
X4671654Y3411128D01*
X4655398Y3416716D01*
X4628220Y3416716D01*
X4611710Y3411128D01*
X4600788Y3405794D01*
X4589866Y3394872D01*
X4584532Y3383950D01*
X4584532Y3362106D01*
X4589866Y3351184D01*
X4600788Y3340262D01*
X4611710Y3334928D01*
X4699086Y3233328D02*
G01*
X4699086Y3287938D01*
X4649810Y3293272D01*
X4655398Y3287938D01*
X4660732Y3271428D01*
X4660732Y3255172D01*
X4655398Y3238916D01*
X4644476Y3227994D01*
X4628220Y3222406D01*
X4617298Y3222406D01*
X4600788Y3227994D01*
X4589866Y3238916D01*
X4584532Y3255172D01*
X4584532Y3271428D01*
X4589866Y3287938D01*
X4595454Y3293272D01*
X4606376Y3298860D01*
X4699086Y3131982D02*
G01*
X4622632Y3186338D01*
X4622632Y3104550D01*
X4699086Y3131982D02*
G01*
X4584532Y3131982D01*
X4699086Y2992282D02*
G01*
X4584532Y3046892D01*
X4699086Y3068736D02*
G01*
X4699086Y2992282D01*
D12*
X1021935Y226989D02*
G01*
X513935Y226989D01*
X513935Y2512989D01*
X1021935Y2512989D01*
X1021935Y226989D01*
X3561933Y734989D02*
G01*
X3561933Y226989D01*
X1275933Y226989D01*
X1275933Y734989D01*
X3561933Y734989D01*
X1275933Y2512987D02*
G01*
X4577933Y2512987D01*
X4577933Y988987D01*
X1275933Y988987D01*
X1275933Y2512987D01*
X1352133Y3694084D02*
G01*
X1352133Y3376584D01*
X704433Y3376584D01*
X704433Y3694084D01*
X1352133Y3694084D01*
X1336133Y3440084D02*
G01*
X1336133Y3122584D01*
X688433Y3122584D01*
X688433Y3440084D01*
X1336133Y3440084D01*
X1336133Y3186084D02*
G01*
X1336133Y2868584D01*
X688433Y2868584D01*
X688433Y3186084D01*
X1336133Y3186084D01*
X1336133Y2932084D02*
G01*
X1336133Y2614584D01*
X688433Y2614584D01*
X688433Y2932084D01*
X1336133Y2932084D01*
X2037933Y3528984D02*
G01*
X2037933Y3020984D01*
X2025233Y3020984D01*
X2025233Y3528984D01*
X2037933Y3528984D01*
X2799930Y3528984D02*
G01*
X2799930Y3020984D01*
X2787230Y3020984D01*
X2787230Y3528984D01*
X2799930Y3528984D01*
X3561930Y3528984D02*
G01*
X3561930Y3020984D01*
X3549230Y3020984D01*
X3549230Y3528984D01*
X3561930Y3528984D01*
X4323928Y3528984D02*
G01*
X4323928Y3020984D01*
X4311228Y3020984D01*
X4311228Y3528984D01*
X4323928Y3528984D01*
G75*
G01*
X2037933Y3020985D02*
G03*
X2037933Y3528985I0J254000D01*
G75*
G01*
X2799931Y3020985D02*
G03*
X2799931Y3528985I0J254000D01*
G75*
G01*
X3561931Y3020985D02*
G03*
X3561931Y3528985I0J254000D01*
G75*
G01*
X4323928Y3020985D02*
G03*
X4323928Y3528985I0J254000D01*
G75*
G01
X998593Y303190D02*
G03X998593Y303190I-40157J0D01*
G75*
G01
X3525891Y671490D02*
G03X3525891Y671490I-40157J0D01*
G75*
G01
X2090308Y1496987D02*
G03X2090308Y1496987I-52375J0D01*
M02*
