G04 Layer: BottomLayer*
G04 EasyEDA v6.5.22, 2022-12-21 06:26:03*
G04 44fb20df35f846389fc18a84798fcb8b,a0dd7df4febf45e98c33e1d5b3abf522,10*
G04 Gerber Generator version 0.2*
G04 Scale: 100 percent, Rotated: No, Reflected: No *
G04 Dimensions in millimeters *
G04 leading zeros omitted , absolute positions ,4 integer and 5 decimal *
%FSLAX45Y45*%
%MOMM*%

%ADD10C,1.6000*%
%ADD11O,2.999994X2.1999956000000003*%
%ADD12O,2.1999956000000003X2.999994*%
%ADD13O,1.9999959999999999X2.4999949999999997*%
%ADD14C,1.0000*%

%LPD*%
D10*
X3307941Y1242999D02*
G01*
X3307941Y1289403D01*
X3132300Y1465044D01*
X2214016Y1465044D01*
X1783941Y1034976D01*
X1783941Y480999D01*
X1529941Y480999D02*
G01*
X1529941Y1035123D01*
X2171217Y1676400D01*
X2514600Y1676400D01*
X3561941Y3274974D02*
G01*
X3386274Y3274974D01*
X2850182Y2738884D01*
X4323915Y3274974D02*
G01*
X4233415Y3274974D01*
X3782616Y2824175D01*
X3782616Y2163676D01*
X3653655Y2034715D01*
X2192324Y2034715D01*
X1513941Y2713098D01*
X1513941Y2766974D01*
X2037941Y3528974D02*
G01*
X1828774Y3738140D01*
X403633Y3738140D01*
X264591Y3599103D01*
X264591Y902258D01*
X685850Y480999D01*
X767941Y480999D01*
X513941Y3274974D02*
G01*
X596392Y3274974D01*
X1198501Y2672864D01*
X1198501Y1336215D01*
X851286Y988999D01*
X767941Y988999D01*
X513941Y3020974D02*
G01*
X604613Y3020974D01*
X1024384Y2601211D01*
X1024384Y1410616D01*
X856767Y1242999D01*
X767941Y1242999D01*
X513941Y2766974D02*
G01*
X513941Y1656077D01*
X673026Y1496999D01*
X767941Y1496999D01*
X3053941Y1242999D02*
G01*
X3053941Y1054986D01*
X2799941Y800986D01*
X2799941Y480999D01*
X2545941Y1242999D02*
G01*
X2545941Y480999D01*
X2291941Y1242999D02*
G01*
X2291941Y480999D01*
X4323915Y3020974D02*
G01*
X4323915Y2004974D01*
X3561941Y1242999D01*
X3561941Y3020974D02*
G01*
X3307941Y2766974D01*
X3307941Y2258999D01*
X2037941Y3020974D02*
G01*
X2291941Y2766974D01*
X2291941Y2258999D01*
X2219883Y3845105D02*
G01*
X2219883Y3770807D01*
X2715717Y3274974D01*
X2799941Y3274974D01*
D11*
G01*
X767935Y480989D03*
G01*
X767935Y734989D03*
G01*
X767935Y988989D03*
G01*
X767935Y1242989D03*
G01*
X767935Y1496989D03*
G01*
X767935Y1750989D03*
G01*
X767935Y2004989D03*
G01*
X767935Y2258989D03*
D12*
G01*
X3307933Y480989D03*
G01*
X3053933Y480989D03*
G01*
X2799933Y480989D03*
G01*
X2545933Y480989D03*
G01*
X2291933Y480989D03*
G01*
X2037933Y480989D03*
G01*
X1783933Y480989D03*
G01*
X1529933Y480989D03*
D13*
G01*
X2291933Y1242987D03*
G01*
X2545933Y1242987D03*
G01*
X2799933Y1242987D03*
G01*
X3053933Y1242987D03*
G01*
X3307933Y1242987D03*
G01*
X3561933Y1242987D03*
G01*
X3561933Y2258987D03*
G01*
X3307933Y2258987D03*
G01*
X3053933Y2258987D03*
G01*
X2799933Y2258987D03*
G01*
X2545933Y2258987D03*
G01*
X2291933Y2258987D03*
D11*
G01*
X1529933Y3528984D03*
G01*
X529935Y3528984D03*
G01*
X1513933Y3274984D03*
G01*
X513935Y3274984D03*
G01*
X1513933Y3020984D03*
G01*
X513935Y3020984D03*
G01*
X1513933Y2766984D03*
G01*
X513935Y2766984D03*
G01*
X2037933Y3528984D03*
G01*
X2037933Y3274984D03*
G01*
X2037933Y3020984D03*
G01*
X2799930Y3528984D03*
G01*
X2799930Y3274984D03*
G01*
X2799930Y3020984D03*
G01*
X3561930Y3528984D03*
G01*
X3561930Y3274984D03*
G01*
X3561930Y3020984D03*
G01*
X4323928Y3528984D03*
G01*
X4323928Y3274984D03*
G01*
X4323928Y3020984D03*
D14*
G01*
X2219883Y3845102D03*
G01*
X2850184Y2738881D03*
G01*
X2514600Y1676400D03*
M02*
